<svg id="Calque_1" data-name="Calque 1" xmlns="http://www.w3.org/2000/svg" viewBox="0 0 1048.85 92.67"><defs><style>.cls-1{fill:#fff;}</style></defs><path class="cls-1" d="M99.19,43.58v16.5H31.74a8.51,8.51,0,0,0-8.45,8.45v8.58h59.4v16.5H23.16V136H6.79V68.53a24.9,24.9,0,0,1,24.82-25Z" transform="translate(-6.79 -43.58)"/><path class="cls-1" d="M180.91,136H162.43L154,119.48l-20.2-39.6-20.19,39.6L105.14,136H86.66l8.44-16.5,38.68-75.9,38.68,75.9Z" transform="translate(-6.79 -43.58)"/><path class="cls-1" d="M252.46,69.19v-.53A8.5,8.5,0,0,0,244,60.21H206.53a8.5,8.5,0,0,0-8.45,8.45v.53a8.5,8.5,0,0,0,8.45,8.44h33.26a29,29,0,0,1,21.52,9.51c.39.4.66.79,1.06,1.19A29.17,29.17,0,0,1,239.79,136H210.88a29.18,29.18,0,0,1-29.17-29.17h16.5a12.67,12.67,0,0,0,12.67,12.67h28.91a12.67,12.67,0,1,0,0-25.34H206.53a24.67,24.67,0,0,1-17.3-7,23.54,23.54,0,0,1-3.17-4,24.56,24.56,0,0,1-4.35-14.13v-.52a24.9,24.9,0,0,1,24.82-25H244a25,25,0,0,1,25,25v.52Z" transform="translate(-6.79 -43.58)"/><path class="cls-1" d="M370.09,43.71v16.5H332.2v75.9H315.7V60.21H277.82V43.71Z" transform="translate(-6.79 -43.58)"/><path class="cls-1" d="M399.93,68.53v8.58h59.4v16.5h-59.4V111a8.51,8.51,0,0,0,8.45,8.45h67.45V136H408.38A24.9,24.9,0,0,1,383.56,111V68.53a24.9,24.9,0,0,1,24.82-25h67.45v16.5H408.38A8.51,8.51,0,0,0,399.93,68.53Z" transform="translate(-6.79 -43.58)"/><path class="cls-1" d="M563.62,119.75l8.45,16.5H553.59l-8.45-16.5-8.84-17.3-.4-.79a16.35,16.35,0,0,0-14-7.92h-16.5v42.51H488.9V43.84h58.35a24.79,24.79,0,0,1,24.82,24.82,25,25,0,0,1-14.52,22.7,21.81,21.81,0,0,1-7.13,2ZM547.25,77.24a7.77,7.77,0,0,0,3.43-.79,8.39,8.39,0,0,0,5-7.66,8.66,8.66,0,0,0-2.51-6.07,8.28,8.28,0,0,0-5.94-2.38H505.41v17Z" transform="translate(-6.79 -43.58)"/><path class="cls-1" d="M701.71,80.67l40,55.31H721.38l-32-44.09-23.36,21.25V136h-16.5V43.58h16.5V90.84l13.6-12.41,12.27-11.22,25.74-23.63h24.43Z" transform="translate(-6.79 -43.58)"/><path class="cls-1" d="M847.72,43.58v46.2a46.21,46.21,0,0,1-92.41,0V43.58h16.5v46.2a29.7,29.7,0,0,0,59.4,0V43.58Z" transform="translate(-6.79 -43.58)"/><path class="cls-1" d="M953.33,106.54A29.46,29.46,0,0,1,923.89,136h-63V43.58h58.22a25,25,0,0,1,25,25,24.52,24.52,0,0,1-4,13.46A29.45,29.45,0,0,1,953.33,106.54ZM877.42,77h41.85a8.45,8.45,0,1,0,0-16.89H877.42Zm46.47,42.38a12.94,12.94,0,1,0,0-25.87H877.42v26h46.47Z" transform="translate(-6.79 -43.58)"/><path class="cls-1" d="M979.73,68.53v8.58h59.41v16.5H979.73V111a8.51,8.51,0,0,0,8.45,8.45h67.46V136H988.18A24.9,24.9,0,0,1,963.36,111V68.53a24.9,24.9,0,0,1,24.82-25h67.46v16.5H988.18A8.51,8.51,0,0,0,979.73,68.53Z" transform="translate(-6.79 -43.58)"/></svg>